<?xml version="1.0" encoding="utf-8"?>
<!-- Generator: Adobe Illustrator 19.1.0, SVG Export Plug-In . SVG Version: 6.00 Build 0)  -->
<!DOCTYPE svg PUBLIC "-//W3C//DTD SVG 1.1//EN" "http://www.w3.org/Graphics/SVG/1.1/DTD/svg11.dtd">
<svg version="1.1" xmlns="http://www.w3.org/2000/svg" xmlns:xlink="http://www.w3.org/1999/xlink" x="0px" y="0px"
	 viewBox="0 0 200 200" style="enable-background:new 0 0 200 200;" xml:space="preserve">
<style type="text/css">
	.st0{fill:#FFFFFF;}
	.st1{fill:#5493C1;}
	.st2{fill:#5895B9;}
	.st3{fill:url(#);}
	.st4{fill:#4D4845;}
	.st5{fill:#0073A2;}
	.st6{fill:#FFFFFF;stroke:#000000;stroke-miterlimit:10;}
	.st7{filter:url(#Adobe_OpacityMaskFilter);}
	.st8{opacity:0.9;mask:url(#SVGID_1_);}
	.st9{fill:#63B7E6;}
	.st10{filter:url(#Adobe_OpacityMaskFilter_1_);}
	.st11{opacity:0.9;mask:url(#SVGID_2_);fill:#63B7E6;}
	.st12{filter:url(#Adobe_OpacityMaskFilter_2_);}
	.st13{opacity:0.9;mask:url(#SVGID_3_);fill:#63B7E6;}
	.st14{filter:url(#Adobe_OpacityMaskFilter_3_);}
	.st15{opacity:0.9;mask:url(#SVGID_4_);fill:#63B7E6;}
	.st16{filter:url(#Adobe_OpacityMaskFilter_4_);}
	.st17{opacity:0.9;mask:url(#SVGID_5_);fill:#63B7E6;}
	.st18{filter:url(#Adobe_OpacityMaskFilter_5_);}
	.st19{opacity:0.9;mask:url(#SVGID_6_);fill:#63B7E6;}
	.st20{fill:#414042;}
	.st21{fill:none;}
</style>
<g id="BG">
</g>
<g id="DS_Emblem">
</g>
<g id="letterhead">
</g>
<g id="logo">
</g>
<g id="Card">
	<g id="Touch-screen_phone">
		<g id="Touch-screen_phone_1_">
		</g>
	</g>
	<g id="Desktop_Monitor">
	</g>
</g>
<g id="Guide">
</g>
<g id="Web_x5F_banner">
	<g>
		<path class="st1" d="M100,4.1C47,4.1,4.1,47,4.1,100c0,53,43,95.9,95.9,95.9c53,0,95.9-43,95.9-95.9C195.9,47,153,4.1,100,4.1z
			 M100,188.5c-48.9,0-88.5-39.6-88.5-88.5S51.1,11.5,100,11.5c48.9,0,88.5,39.6,88.5,88.5S148.9,188.5,100,188.5z"/>
		<g>
			<path class="st1" d="M100,181.7c-45.1,0-81.7-36.7-81.7-81.7c0-45.1,36.7-81.7,81.7-81.7c45.1,0,81.7,36.7,81.7,81.7
				C181.7,145.1,145.1,181.7,100,181.7z M100,20.1C56,20.1,20.1,56,20.1,100c0,44,35.8,79.9,79.9,79.9c44,0,79.9-35.8,79.9-79.9
				C179.9,56,144,20.1,100,20.1z M100,177.1c-42.5,0-77.1-34.6-77.1-77.1c0-42.5,34.6-77.1,77.1-77.1c42.5,0,77.1,34.6,77.1,77.1
				C177.1,142.5,142.5,177.1,100,177.1z M100,30.4c-38.4,0-69.6,31.2-69.6,69.6c0,38.4,31.2,69.6,69.6,69.6
				c38.4,0,69.6-31.2,69.6-69.6C169.6,61.6,138.4,30.4,100,30.4z"/>
		</g>
		<g>
			<g>
				<g>
					<path class="st1" d="M51.9,97.8c0,0,4.5-1.9,7.4-5.5c2.9-3.7,7-0.4,6.6,10.7c0,0-1.3-2.8-4.4-3.5
						C57.5,99.1,54.8,99.1,51.9,97.8z"/>
					<path class="st1" d="M54.8,117.8c0,0,4.3-2.6,6.8-6.7c2.4-4.2,7.1-1.4,8.3,10c0,0-1.8-2.7-5-2.9
						C60.8,118.3,58,118.7,54.8,117.8z"/>
				</g>
				<g>
					<path class="st1" d="M78.6,59.8c0,0-23.9,19.4-17.7,40.5c3.2,7,5.7,26.3,1.7,38.3c-5,9.2-5,9.2-5,9.2s22.9-20.6,16.4-44
						C71.1,93.7,67.2,79,78.6,59.8z"/>
					<path class="st1" d="M96,30.2c0,0-30.5,20-13.7,34.3c6.6,5.6,53.6,26.5,58.8,45.4c3.7,6.8-0.2,22.1-6.1,28
						c-5.8,5.8-6,6.3-6,6.3l12.4-6c0,0,22.5-7.8,17.3-30.1c-1.9-10.1-22.7-25.4-27.8-29.1c-32.7-24-45.9-23.7-40.5-39.1
						C92.5,35.6,94.8,31.8,96,30.2z"/>
					<path class="st1" d="M79.7,59.8v79.3l1.7-2.2l1-48.6V62.4C82.4,62.4,81.3,61.3,79.7,59.8z"/>
				</g>
			</g>
			<g>
				<path class="st1" d="M45.1,154.1c2.1-0.3,3.7-1.8,5.4-3.1c3.9-4.2,15.3-17.2,25.9-17.6c10.3-0.8,32.4,23.2,47,11.4
					c-8.1,9.3-12,15-22.9,12c-10.9-3-14.9-8.4-21.3-11.5c-6.8-3.5-13.4-2.9-18.7,0.5C54.1,151,48.5,155.3,45.1,154.1z"/>
				<g>
					<g>
						<g>
							<g>
								<path class="st1" d="M87.3,109.6c0,0-3.6,17.2,7.9,20.1c9.8,2.7,28.3-1.6,27.2,16c3.3-2.3,5.1-6.4,3.5-10.4
									c-1.6-4-4.9-9.2-17.4-10.5C96,123.2,90.1,117.4,87.3,109.6z"/>
								<g>
									<path class="st1" d="M130.7,99.6c-8.6-1-13.9-15.9-19.7-18.2c-6.1-3.3-17.8,4.3-21.5,9.7c13.3-5.8,15.9,0,17.6,1.8
										c1.4,1.9,8.1,15,18.2,13.5c11.8-2.2,13.4-9.4,13.4-9.4S135.2,100.2,130.7,99.6z"/>
									<path class="st1" d="M89.3,91.9c0,0,1.7,17.4,20.5,18.2c18.8,0.7,21.9,4.9,18.9,19.3c0,0-2.7-9.7-18.6-9.3
										C94.1,120.6,84.1,108.1,89.3,91.9z"/>
								</g>
							</g>
							<polygon class="st1" points="112.5,106.5 114.4,105.4 115.5,106.3 113.9,108.4 							"/>
						</g>
						<polygon class="st1" points="93,132.6 94.8,134.3 92.8,135.9 91.2,133.9 						"/>
					</g>
					<polygon class="st1" points="114.1,110.4 121,106.2 122.8,106.5 115.8,110.5 					"/>
					<polygon class="st1" points="81.1,135.2 91.8,128.2 94.8,128.7 83.9,135.4 					"/>
				</g>
			</g>
		</g>
	</g>
</g>
<g id="icons">
</g>
</svg>
